<?xml version="1.0" encoding="utf-8"?>
<!-- Generator: Adobe Illustrator 26.0.2, SVG Export Plug-In . SVG Version: 6.00 Build 0)  -->
<svg version="1.1" id="レイヤー_1" xmlns="http://www.w3.org/2000/svg" xmlns:xlink="http://www.w3.org/1999/xlink" x="0px"
	 y="0px" viewBox="0 0 408.4 1021.3" style="enable-background:new 0 0 408.4 1021.3;" xml:space="preserve">
<style type="text/css">
	.st0{clip-path:url(#SVGID_00000168096386108806696640000016310873315858471595_);}
</style>
<g id="レイヤー_2_00000053538790189782170630000012631825574254419587_">
	<g id="レイヤー_1-2">
		<g>
			<defs>
				<rect id="SVGID_1_" x="-9.7" y="-31.1" width="419.5" height="1181.1"/>
			</defs>
			<clipPath id="SVGID_00000176761444322091328120000008548804822137119633_">
				<use xlink:href="#SVGID_1_"  style="overflow:visible;"/>
			</clipPath>
			<g style="clip-path:url(#SVGID_00000176761444322091328120000008548804822137119633_);">
				<g id="グループ_297">
					<path id="パス_1197" d="M95.8,273.9C52.4,249,32.1,209.9,15.9,167.9c12.7,20.3,25,40.9,38.5,60.6c6.3,9.2,15,17,23,25
						c2.2,2.2,6,2.7,12.8,5.6c-15.4-21.4-29-39.1-41.3-57.7c-12.1-18.4-22.7-37.8-34.2-57.1L3,149.9c-1.2-4.1-3.9-8.2-2.8-10.5
						C6,127.7,4.4,113.6,14,102.9c4.6-5.2,6.3-13.9,7.2-21.3c2.4-19.9,9.3-28.8,28.7-33.5c3.7-0.8,7.5-1.4,11.3-1.8
						c5.4-10.8,9-20.2,14.4-28.3c6.4-9.6,16.7-12.5,27.1-7.6c10.1,4.8,17.7,3.8,26-3.6c8-7.2,16.3-9.4,27.6-2.9
						c9.4,5.4,21.6,5.8,32.7,8c6.7,1.3,10,4.7,11.9,11.5c6.9,24.8,15.6,49.2,21.6,74.3c7.8,32.2,8.6,65.6,2.3,98.2
						c-0.5,2.3-0.8,4.7-1,7.1c-0.1,1.1,0.6,2.2,1.3,4.7c36.2,0.8,63.6,20.4,87.3,46.1c8,8.7,14.5,19,20.8,29.1
						c51.3,81.8,82,173.2,121,260.7c21.2,47.7,40.2,96.4,61.8,143.9c25.5,56.2,40.8,115.1,50.6,175.8c5.8,35.5,12.7,70.8,18.4,106.4
						c8.8,55.2,21.8,109.3,42.3,161.5c0.7,1.7,1.3,3.4,1.9,5.1c3.2,9.6,4,19-4.1,26.8c-8.3,8.1-18.1,6.5-26.8,1.9
						c-17.9-9.6-35.9-19.5-52.7-30.9c-20.4-13.8-39.5-29.3-59.4-43.8c-56.6-41.3-100.5-94.1-137.4-153c-35-56-69.9-112-104.6-168.1
						c-2.5-4.1-4.8-8.3-7-12.6c-15.4-29.2-31.8-58-45.8-87.8c-28-59.8-55.8-119.6-81.2-180.5c-11-26.3-15.7-55.3-23.3-83
						c-3-11-5.9-22-9.3-32.9C67,337.8,65.3,304.8,95.8,273.9 M615.4,1155.4l3.9-4.4c-2.4-9.1-4.5-18.3-7.2-27.2
						c-6.6-21.8-15.5-43.1-20-65.3c-14.3-69.3-28.6-138.6-39.8-208.4c-9.8-61.6-28-119.9-54-176.5c-23.6-51.2-46.1-103-67-155.3
						c-29-72.5-61-143.6-97.6-212.5c-13.7-26.2-32.9-49-56.3-67C253,220.1,226,214.1,196,222.5c-33.1,9.2-61.4,26.2-86.1,50.1
						c-26.4,25.5-34.7,54.7-24.5,90c8.1,28.2,14.7,56.8,22.2,85.2c2.9,11,6,22,10,32.7c28.8,77.9,65.7,152,106.6,224.1
						c36.7,64.7,74.6,128.7,112.5,192.7c24.6,41.9,52.6,81.7,83.7,119c46.3,55.4,108.9,89.6,166.8,130
						C594.9,1151.6,605.9,1152.4,615.4,1155.4 M162.9,222.4c19.5-5,21.2-5.2,23-15.5c2.7-15.2,6.3-31.1,4.6-46.1
						c-4-33.3-9.7-66.4-17-99.1c-3.3-14.9-10.9-29-17.6-42.9c-2.8-5.8-8.4-10.7-16.3-8.4c-7.7,2.2-12.5,7.9-12.9,15.6
						c-0.5,9.5-0.6,19.3,1.2,28.5c10.4,53.4,21.4,106.8,32.2,160.1C160.5,217,161.7,219.2,162.9,222.4 M147.7,223.7
						c-0.4-6-0.8-10.2-1-14.3c-3.9-58.3-22.2-113.6-35.1-170.1c-0.7-2.9-1.9-5.7-3.5-8.2c-7.6-12.3-19.3-12.7-26.4,0
						c-3.2,5.8-5.5,13.8-4.3,20.1c10.3,52.9,23.5,105,44,155C125.7,216.7,132.9,224.2,147.7,223.7 M122.6,233
						c-11-29.2-23.2-57-32-85.9S76.1,88.1,69.1,59c-3.6-0.2-5.4-0.3-7.1-0.3c-25.2,0.6-27.8,3.8-24.4,29.1
						c5.8,43.9,27.1,81.7,48.7,119.1c4.4,7.7,11.2,14.1,17.2,20.7C107.9,232.5,112.8,237.5,122.6,233 M214.9,190.1
						c4.7-27.2,5.9-54.4-0.9-81.4c-5.1-20.3-11.1-40.4-16.8-60.5c-2.1-7.5-4-15.1-6.8-22.3c-3.3-8.5-9.3-10.1-17.5-4.7
						c0.4,2.4,0.5,4.8,1.1,7c7.4,29.6,15.6,59,22.1,88.7c4.4,20.4,6.5,41.4,9.7,62.1C206.5,184,205.8,190.3,214.9,190.1 M24.9,108.8
						c-3.5,3.2-6,4.5-6.7,6.4c-3.9,11.2,0.1,21.2,5.6,30.7c13.1,22.9,25.9,46,39.9,68.3c7.6,12.1,16.9,23.2,26.3,34
						c2.4,2.7,8.4,2.3,12.7,3.3c0-4.3,1.5-9.6-0.4-12.6c-5-7.5-10.9-14.3-17.5-20.4c-15.8-14.7-26.5-32.3-33.7-52.5
						c-4.8-13.6-10.3-26.9-16-40.1C32.7,120.2,28.8,115.1,24.9,108.8"/>
					<path id="パス_1203" d="M457.1,760.8l-11.8,6.5c-0.6-1-1.2-1.9-1.8-2.9l11-7.9L457.1,760.8"/>
					<path id="パス_1204" d="M350,508.1l-10.1,3.2L339,509l9.4-4.6L350,508.1"/>
					<path id="パス_1205" d="M265.2,381.4l8.8-3.7l1.4,2.7l-8.8,5C266.2,384,265.6,382.7,265.2,381.4"/>
				</g>
			</g>
		</g>
	</g>
</g>
</svg>
