<?xml version="1.0" encoding="utf-8"?>
<!-- Generator: Adobe Illustrator 26.0.2, SVG Export Plug-In . SVG Version: 6.00 Build 0)  -->
<svg version="1.1" id="レイヤー_1" xmlns="http://www.w3.org/2000/svg" xmlns:xlink="http://www.w3.org/1999/xlink" x="0px"
	 y="0px" viewBox="0 0 235.7 306.7" style="enable-background:new 0 0 235.7 306.7;" xml:space="preserve">
<style type="text/css">
	.st0{clip-path:url(#SVGID_00000135667559605667853900000002252647837372903821_);}
</style>
<g id="レイヤー_2_00000056430010137652669110000009255212808199657407_">
	<g id="レイヤー_1-2">
		<g>
			<g>
				<defs>
					<rect id="SVGID_1_" x="-8.6" y="-40.1" width="244.1" height="431.4"/>
				</defs>
				<clipPath id="SVGID_00000065073216977315009300000016473644755199737277_">
					<use xlink:href="#SVGID_1_"  style="overflow:visible;"/>
				</clipPath>
				<g style="clip-path:url(#SVGID_00000065073216977315009300000016473644755199737277_);">
					<path id="パス_1249" d="M107.4,153.7c-6.7-0.1-12.1-0.5-17.5-0.2c-28.1,1.3-52.4-8.9-74-25.7c-18-14-19.7-38.8-3.7-55.1
						c14.1-14.3,28.7-28.2,44.1-41c37-31,79.8-37.6,125.9-27c11.6,2.7,21.7,8.7,30.4,16.7c16.2,14.9,30.8,31.2,42.7,49.8
						c8.1,12.8,14,26.5,16.7,41.5c6.8,38.7-22.6,68.9-61.4,63c-10.8-1.6-21.7-3.1-32.4-5.5c-6.5-1.5-10.2,0.9-13.7,5.9
						c-15.4,21.5-24.3,45.7-29.9,71.3c-3.3,15-8.8,29.5-16.4,42.8c-8.7,15.5-28.4,21-44,12.3c-0.6-0.3-1.1-0.6-1.6-1
						c-17.2-10.9-22.5-26-16.1-45.3c7-21.4,19.1-40.2,29.7-59.7c5-9.3,10.6-18.4,15.5-27.8C103.9,164.4,105.2,159.5,107.4,153.7
						 M187.5,15.3C146.5,3.7,110.2,3,77.8,25.2C57.4,39.1,39,56.1,21.1,73.2c-13.9,13.3-13.1,35.3,1,48.1
						c12.4,11.2,26.1,20.3,44.1,21.8c32.7,2.6,65.3,6.4,97.3,14.8c16.9,4.6,34.2,7.9,51.6,10c27.5,3.2,49-17.3,49-45
						c0-10.9-3-21-7.6-30.6c-10.7-22.3-24.5-42.5-43-58.9C204.5,25.5,193.9,19.7,187.5,15.3 M156.7,164.1l-37.7-8
						c-2.7,3.6-4.7,6.2-6.6,8.9C93,193.5,78,224.3,63.5,255.5c-1.7,4-2.7,8.3-2.8,12.7c-0.6,12,9.1,25.9,21.3,30.6
						c11.6,4.4,19.6-2.1,27-9.7c10.2-10.6,15.6-23.8,18.4-38c5-25.5,13.2-50.2,24.4-73.7C153.7,173.7,154.8,169.5,156.7,164.1"/>
				</g>
			</g>
		</g>
	</g>
</g>
</svg>
