<?xml version="1.0" encoding="utf-8"?>
<!-- Generator: Adobe Illustrator 26.0.2, SVG Export Plug-In . SVG Version: 6.00 Build 0)  -->
<svg version="1.1" id="レイヤー_1" xmlns="http://www.w3.org/2000/svg" xmlns:xlink="http://www.w3.org/1999/xlink" x="0px"
	 y="0px" viewBox="0 0 354.9 444.4" style="enable-background:new 0 0 354.9 444.4;" xml:space="preserve">
<style type="text/css">
	.st0{clip-path:url(#SVGID_00000040543951738787629340000009533007490488542369_);}
</style>
<g id="レイヤー_2_00000069390572307034258260000006464093405695463351_">
	<g id="レイヤー_1-2">
		<g>
			<defs>
				<rect id="SVGID_1_" x="-26.4" y="-70.4" width="381.2" height="552"/>
			</defs>
			<clipPath id="SVGID_00000066504472033387595360000016430985537763267001_">
				<use xlink:href="#SVGID_1_"  style="overflow:visible;"/>
			</clipPath>
			<g style="clip-path:url(#SVGID_00000066504472033387595360000016430985537763267001_);">
				<g id="グループ_293">
					<path id="パス_1190" d="M234.8,17.1c15-4.9,29.5-10.1,44.3-14.3c20.4-5.7,38.5-3.5,54.5,13c8,8.2,19.5,13.3,30,18.6
						c8.2,4.1,17.4,6.3,26,9.6c18.4,7.1,30.9,19.8,36.8,38.8c1.7,5.5,3.3,11,5.5,16.3c23.9,57.7,25.4,118.2,22.9,179.3
						c-0.7,16.5-5.8,32-13.6,46.6c-9,17-21.4,30-40.7,35.3c-10.3,2.8-17.6,9.3-23.4,18.2c-11.2,17.4-26.5,29.4-47.4,32.9
						c-6.4,1.1-11.2,4.4-15.4,9.3c-7.1,8.4-16.5,12.9-27.6,13.8c-15.4,1.1-30.6,3.5-45.5,7.3c-18.1,4.8-36.7,2.2-55.1-1
						c-13-2.3-26-3.9-39.2-4.7c-26.1-1.5-47.4-12.3-65.2-31c-19.6-20.6-33.9-44.5-45.9-70.3c-13.9-29.8-22.6-61.2-31.9-92.2
						C-4.4,214,0,185.8,20.3,161.8c2.8-3.4,5.5-6.9,8.4-10.2C39,139.8,46.5,126.5,50,111.1c4.6-20.3,17.7-32.8,36.7-40
						c12.3-4.7,24.7-9.4,36.6-15.1c5.3-2.5,11.1-6.5,13.9-11.4c10.3-17.5,26.1-24.1,45.2-25c6.7-0.3,12.1-1.8,17.4-7.1
						C209.3,3.2,223.7,5.4,234.8,17.1 M305.4,213.1c-8.9-25.3-19-49.6-36.1-70.4c-7.8-9.4-10.9-9.8-21-3.5
						c-8.7,5.4-17.7,11.7-28,10.4c-18-2.1-26,8.2-32.4,22c-1.7,3.6-3.8,7-5.5,10.5c-9.4,19.1-13.1,39.3-9.2,60.3
						c3.5,18.6,7.8,37,12.3,55.4c7.4,30.2,21.4,57.6,35.1,85.3c11.1,22.5,29.2,36,52.3,43.4c17,5.4,29.9-0.6,36.3-17.1
						c13-33.2,21.2-67.6,15.5-103.3C319.6,274.9,311.9,244.1,305.4,213.1 M186.8,150c-14.5-8.8-29.3-14.9-46.2-14
						c-21.3,1.2-36.3,13.1-46.5,30.6c-7.1,12.1-11.8,25.5-17.5,38.4c-8,18-8.2,36.6-4.4,55.6c5.2,25.6,13.9,50,24.7,73.7
						c12.3,26.8,29.3,51.2,50.2,72.1c25,25.3,55.1,33.1,89.2,29.8c7.2-0.5,14.1-3.4,19.6-8.1c-3.1-2.1-5.1-3.8-7.3-5
						c-15.3-8.9-26.6-21.7-34.3-37.4c-20.3-41.5-39.7-83.3-48.4-129.3c-3.1-16.5-3.7-32.2,1.6-48.1
						C173.9,189.4,180.1,170.6,186.8,150 M323.7,403.6c12.8-1.2,17.7-2.9,25.4-7.9c16.7-11,27.3-26.6,31.3-45.7
						c3.4-16.3,5-33,6.3-49.6c1.4-18.9-0.5-38.1,2.8-56.6c5.5-31.6,2-62.2-4.5-93c-4-18.8-12.2-34.7-29.1-45.3
						c-8.9-5.6-17.2-12.3-25.9-18.3c-24.5-17-42.5-13.4-59,11.6c-0.7,1.1-1.4,2.3-2.1,3.4c-6.4,8.8-5.3,17.2,1.1,25.5
						c3,3.8,5.7,7.9,8.6,11.7c10.4,13.2,18.1,28.2,22.8,44.4c8.7,30.5,17.5,60.9,26.5,91.3c8.8,29.8,9.3,59.8,2.7,90.1
						c-2.2,9.9-4.2,19.8-6.2,29.8C323.9,397.6,323.7,400.6,323.7,403.6 M392.7,352.3c18-1.4,35.3-12.6,42.9-29.9
						c5.3-12.1,8.9-24.8,10.7-37.9c2.2-15.6,2.3-31.6,2-47.4c-1.1-53.8-11.1-105.8-32-155.5c-6.3-15-16.7-25.6-32.4-30.8
						c-10-3.3-19.8-7.8-30-10.2c-14.5-3.4-29.3-6.9-44-7.6c-28.9-1.2-54.5,17.6-63.6,44.9c13.5,3.9,26.4,6.4,38.1-4.9
						c6.2-6,13.7-6.6,22.1-5c13.3,2.5,25.3,6.7,35.3,16.4c4.7,4.5,10.6,7.9,16.2,11.3c17,10.5,27.6,25.5,32.8,44.6
						c1.7,6.4,3.5,12.7,4.9,19.2c4.8,22.8,8.2,45.6,5.7,69.3c-3.8,35.9-5.6,71.9-8.2,107.9C392.8,341.9,392.8,347,392.7,352.3
						 M143,107.2c-28.9-18.8-50.2-16.8-72.4,7.2c-14.4,15.5-27.1,32.4-41.4,48C5.7,188.1,4.1,218.1,13,249c7.9,27,18.3,53.3,29,79.4
						c11,27,27.2,51.5,47.6,72.3c14.1,14.4,30.9,23.2,51.2,24.6c3.2,0.2,6.5-0.5,11.6-0.9c-4.4-4.1-7.2-6.8-10.2-9.4
						c-12.4-10.7-22.7-23.5-30.6-37.8c-11.1-20.5-21.7-41.2-32.5-61.9c-28.2-54-18.7-105.6,10.7-155.6c7.8-13.3,19.6-22.9,35-26.4
						c9.5-2.1,14.7-7,15.9-16.5C141.2,113.7,142.2,110.8,143,107.2 M150.6,129.1c17.2,4.4,34,10.6,51.2,12.5
						c25.8,2.8,55.7-6,58.1-45.8c0-0.9,0-1.8-0.1-2.8c-4.9-4.9-10.9-5-17.1-3.8c-2.6,0.5-5.1,1.4-7.7,1.9
						c-17.2,3.5-23.8-1.6-22.1-18.8c1.2-11.7,4.5-23.3,6.9-34.9c0.9-4.3,2.7-8.7,2.3-12.8c-0.2-2.7-3.1-6-5.7-7.4
						c-3.6-1.9-8.1-1.7-10.3,2.7c-1.7,3.6-2.8,7.4-3.4,11.2c-2.1,12.1-4.1,24.3-5.9,36.5c-2,13.8-10.3,21.9-22.9,26.3
						c-2.1,0.7-4.2,1.4-6.2,2.3C153.3,102.6,149,110,150.6,129.1 M178.1,79.4c-2.3-10.6-9-16.8-17.7-18.5s-18.8-2.4-27.1,0.2
						c-18,5.6-35.5,13-52.8,20.6c-13.7,6.1-20.2,17.9-23.4,35.1c4.8-4.7,7.5-7.4,10.2-10c20.4-19.9,48-24.6,72.4-12
						c4.1,2.1,7.3,2.2,11,0.1C159.8,89.7,168.9,84.6,178.1,79.4 M222.5,77.6l2.8,1.7c2.6-2,5.4-3.7,7.7-6.1
						c9.3-9.4,18.7-18.7,27.5-28.5c12.3-13.7,27.6-19.9,45.7-20c5.6,0,11.1-0.4,17.4-0.7C315.4,12.4,306,7.7,291.3,9.8
						c-11.2,1.6-22.2,5.4-33.3,8c-21.3,5-31.5,19.7-34.6,40.1C222.4,64.4,222.8,71,222.5,77.6 M193,29.3
						c-24.1-1.5-45.2,3.5-48.1,21.9c15.8-4.2,25.7,8.3,39.4,14.3C187.3,53.1,190,41.7,193,29.3"/>
				</g>
			</g>
		</g>
	</g>
</g>
</svg>
