<?xml version="1.0" encoding="utf-8"?>
<!-- Generator: Adobe Illustrator 26.0.2, SVG Export Plug-In . SVG Version: 6.00 Build 0)  -->
<svg version="1.1" id="レイヤー_1" xmlns="http://www.w3.org/2000/svg" xmlns:xlink="http://www.w3.org/1999/xlink" x="0px"
	 y="0px" viewBox="0 0 277.9 586.9" style="enable-background:new 0 0 277.9 586.9;" xml:space="preserve">
<style type="text/css">
	.st0{clip-path:url(#SVGID_00000153668966141286952660000018409097184756087958_);}
</style>
<g id="レイヤー_2_00000095305595097541827580000013029388065016444802_">
	<g id="レイヤー_1-2">
		<g>
			<defs>
				<rect id="SVGID_1_" x="-0.3" y="-122.5" width="333.7" height="821.3"/>
			</defs>
			<clipPath id="SVGID_00000114785671488840597330000004767679680419450752_">
				<use xlink:href="#SVGID_1_"  style="overflow:visible;"/>
			</clipPath>
			<g style="clip-path:url(#SVGID_00000114785671488840597330000004767679680419450752_);">
				<g id="グループ_299">
					<path id="パス_1206" d="M207.8,71.4c23.5-5.2,42.4-24.4,68-13.1c-10.5,23.1-21.3,44.9-30.4,67.4c-9.1,22.7-14.9,46.6-17.2,71
						c17.3-3.7,29.2-20,49.7-16.4c-2.1,6.6-3.1,12.4-5.6,17.5c-23.9,47.3-46.4,95.5-77.3,138.9c-30.4,42.9-61.1,85.5-90.8,128.9
						c-18.6,27.2-35.7,55.5-53.3,83.5c-5.7,9-11.1,17.9-21.3,22.5c-1,0.3-1.8,0.9-2.5,1.7c-8.6,15-23.2,14-37.1,13.1
						c-14.4-0.9-29-1.8-42.9-5.3c-14.4-3.6-15.9-7.3-16-22.4c0.2-6.6-2.8-13-7.9-17.1c-27.8-23.1-36.2-54.1-36.2-88.6
						c0-59.7,10.4-119,30.7-175.1c12.2-33.9,23.7-68.1,36.3-101.9c6.3-17,16.6-31.9,29.4-44.9c2.3-2.3,6.1-5.3,8.7-4.9
						c10,1.7,12.9-4.3,16.2-11.7c3.8-8.1,8.3-16,13.3-23.4C46.2,54,79.6,27.5,119.1,6.8c31.6-16.6,80.3-3,86.5,45.5
						C206.3,58.2,206.9,64,207.8,71.4 M25,565.8c8.8-13.6,17.7-26.8,26.2-40.4c32.1-51.4,65.3-102.2,104.1-148.7
						c43.9-52.6,74.5-112.4,102.6-174c1.1-2.4,1.1-5.2,2.2-10.7c-7.2,4.1-12.2,6.3-16.5,9.4c-18.2,13.2-36.7,26.3-54.3,40.3
						c-15.6,12.5-31.7,24.9-45,39.6c-19.1,21.1-36.4,43.9-53.5,66.7c-23,30.5-42.1,63.3-54.5,99.7c-5.8,17-12,34-18.8,50.7
						c-6.7,16.2-9.7,33.8-8.7,51.3C9.2,558.8,12.9,565.2,25,565.8 M-8.9,142.2c-10.5,1.4-14.4,8.9-17.8,15.8
						c-8.7,18-17.5,36-24.7,54.6c-9.4,24.2-17,49.2-26,73.6c-21.3,58.1-29.7,118-27.6,179.8c0.7,20,7.3,36.6,18.7,52.7
						s25,28.1,44.8,32.4c8.3,1.8,16.3,5.6,24.6,6.3c11.8,1,16.3-6.7,10.9-17.2c-8.3-16-16.6-32-25.7-47.5
						c-12.7-21.7-18.5-45.1-20-70c-2.5-42.1-0.2-84,3.9-125.8c3.9-40.6,11.3-80.2,28.4-117.6c3.9-8.6,6.6-17.8,9.5-26.9
						C-9.1,149.4-9.3,146-8.9,142.2 M-4.1,337.6c-6.7-5.7-4-10.5-2.3-15c4.6-12.2,9.4-24.3,13.9-36.5c6.7-18.3,5.6-20.6-13.6-29.4
						c-9.5,11.6-13,25.4-14.2,40c-5.4,63.4,3.9,124.8,25,184.6c0.9,2.6,2.3,5,3.7,8.2c8.2-11.2,38.7-90.6,40.2-104.7L22.5,382
						C14.9,398.5,8,413.7-0.4,432.1c-1.2-5.5-2.2-7.5-1.9-9.2c2.4-9.7,4.6-19.4,7.9-28.8c5-14.4,5.3-14.2-5.6-24.4
						c-2.2-2-3.4-5-5.1-7.6c0.6-0.7,1.2-1.3,1.8-2l21.2,9.5c4.1-12.8,7.8-24.3,11.6-35.9l-24.1-9.3C2.1,329.1-0.8,333-4.1,337.6
						 M125.2,232.2c-5,13-10.5,25.4-14.4,38.2c-2.6,8.6-1,16.9,10.5,21.5c13-11.9,25.4-24.9,39.5-35.8
						c20.5-15.9,33.3-34.9,33.9-61.5c0.4-15.4,2.3-30.8,3.1-46.2c0.1-2.7-2.2-5.6-4.5-11c-10.7,25.8-13.1,51.9-31.3,71.4
						c0.7-6.6,1.3-13.3,2.1-21.6l-20.9-3.3L129.7,219l17.2,9.3c-0.2,0.8-0.4,1.6-0.6,2.4L125.2,232.2 M-26.4,237.3l-3.3-0.3
						c-1,3.2-2.4,6.4-2.8,9.7c-6.5,49.6-12.2,99.2-13.4,149.4c-1.2,50.8,22.9,92,45.3,136.7c5.8-12.5,5.8-22.8,1-33.2
						c-3.3-7.3-7.8-14.2-9.8-21.8c-11.1-41.6-21.9-83.4-20.5-127c1-33,2.1-66,3.2-99C-26.6,246.9-26.5,242.1-26.4,237.3 M202.3,219
						c8.7-1.1,9.4-7,10.9-12.2c5.7-20.2,11-40.6,17.1-60.7c7.8-25.8,14-52.3,29.8-75c1.2-1.7,1.1-4.3,1.8-7.8
						c-13.8,0.3-24,6.8-34.8,11c-13.7,5.4-20.4,15.4-19.7,30.3c0.2,3.5,0,7,0.1,10.5c1.6,33,2.7,66-5.3,98.5
						C201.8,215,202.2,216.5,202.3,219 M41.3,128.7c9.3-10.6,14.3-22.8,16.8-35.4c2.2-11.2,5.7-20.9,13.8-29.1
						c5.1-5,7.5-12,6.7-19.1c-27.6,12.3-70.7,79.2-79,122.2l14.7,12.3c7.7-14.4,18.1-24.7,22.1-37.3c-3.3-6.5-12.1-7.3-9.4-16.3
						L41.3,128.7 M143.7,171c21.7,11.3,25.1,10,32.1-10.3c0.5-1.4,0.8-2.9,1.4-4.3c5.6-13.2,11.4-26.4,16.9-39.6
						c1.3-3.2,2.1-6.6,2.2-10c0.1-12,0-24-0.4-35.9c-0.2-4.7-0.2-9.9-6.5-13.6c-1.7,3.7-3.8,6.5-4.3,9.6
						c-2.2,11.8-5.1,22.9-13.3,32.6c-4.5,5.3-5.6,13.5-8.2,20.4l16,9.2c-5.7,1.5-8.6,3.3-10.6,2.6c-8.9-2.9-13.3,1.3-15.8,8.9
						C149.9,150.5,147,160.6,143.7,171 M53.3,381c22-20.6,58.5-71.6,61.1-85.3l-21-2.2l-18.9,49.2l-37-4.7
						c-4,12.3-7.7,23.4-11.7,35.3L53.3,381 M25.5,260l28.8,11l20.4-53.2l-28.8-11L25.5,260z M114.5,234.5
						c-10.3-6.9-19.4-11.3-30-11.4l-20.2,52.7c6.1,1.2,10.9,2,15.6,3.2c9.4,2.5,17.1,0.7,21.1-8.7
						C105.9,258.5,110,246.5,114.5,234.5 M172.9,17.9c-16.6,14.8-18.7,35.5-26.1,53.8l23.9,9.1c6.3-13.1,12.1-25.2,17.9-37.3
						c3.3-6.8,1.8-12.6-4-17.3C181.2,23.5,177.4,21.1,172.9,17.9 M159.6,14.4c-6.1-1.6-10.3-3-14.7-3.7c-6.4-0.9-12.3,1.2-15.3,7
						c-6,11.8-11.6,23.9-13.9,38.5l23.7,10.7L159.6,14.4z M23.6,271.2L7.9,312L33,324.7l17.2-45L23.6,271.2 M131.2,178.7l-28.4-6.8
						c-6.2,14-11.6,26.6-15.4,41.1l28.2,6.5L131.2,178.7z M91,107.4l-18.5,41.3l28.4,10.9l15.5-40.5L91,107.4 M68.7,158.7
						c-7.7,12-14.1,23.9-17.8,37.5l26.5,10.2c8.3-11.7,16.3-22.8,15.6-38.3L68.7,158.7z M136.3,170.5c4.2-14.4,8.1-27.5,12.4-42
						c-8-2.4-14.4-4.3-21.4-6.4c-8.4,13.7-14,27.1-19.2,41.8L136.3,170.5 M61,284.5l-17.3,45l21.6,6.1l16.5-43L61,284.5z M113.3,62
						c-6.3,13.3-11.9,25.1-17.9,37.9l24.1,13.9L134.4,75L113.3,62 M35.5,203l-20.6-7.8c-4.3,14.1-8.7,26.8-12,39.8
						c-2.8,11.5-0.2,14.7,13.1,18.6L35.5,203z M-59.6,556.5c1.1,11,2.2,14.4,9.7,17.1c18.5,6.5,37.7,8.3,57,4.2c2.6-0.5,4.6-4,7-6.2
						c-2.1-2.2-3.1-3.9-4.2-4.1C-12.9,563.8-35.7,560.2-59.6,556.5 M67.2,91.2c-5.5,14.3-10.3,26.2-14.5,38.3c-1.6,4.6-0.2,9.1,5,11
						c5.4,2,9.4,0.7,12-5.1c4.7-10.7,10-21.3,15.4-32.8L67.2,91.2 M44.2,146.3l-21.1,36.4L41.7,194c5.5-11.1,10.5-20.2,14.7-29.7
						C61.5,152.8,59.5,149.9,44.2,146.3 M164.6,90.6L144,82.7l-13,33.8l22.2,3.9L164.6,90.6z M-16.9,244l4.3,1l22-57.4l-15.6-7.9
						C-10.4,202.5-14.9,223.1-16.9,244 M102.3,62.6c-6.9-4.3-13.8-7.7-18.7-1.7c-4.3,5.4-8.1,13.1-8,19.7
						c0.1,7.2,7.7,10.3,15.4,11.3L102.3,62.6z M106.3,51.6c3.8-10,9.2-17.6,8.8-28.6c-11.6,4.9-21.2,9.4-23.2,23.1L106.3,51.6z"/>
					<path id="パス_1207" d="M57.6,473.4c36.4-59.3,86.1-109.1,120.6-169.7C173.4,331.1,82.4,459.3,57.6,473.4"/>
					<path id="パス_1208" d="M104.2,378.2c19.6-32.8,39.3-65.6,60.3-100.7C163.3,297.6,123.7,364.2,104.2,378.2"/>
					<path id="パス_1209" d="M173.8,267.1l4.1-5.8l1.7,0.7c-0.4,1.4-0.5,3-1.3,4.1c-0.7,1-2.1,1.5-3.2,2.2L173.8,267.1"/>
					<path id="パス_1210" d="M-78.5,380.4c2.2,36.6,4.3,73.2,6.5,110.4C-82.5,475.9-85.4,440.1-78.5,380.4"/>
					<path id="パス_1211" d="M-74.3,337.2l-3.3,24.7l-4.2-0.7l4.6-24.5L-74.3,337.2"/>
				</g>
			</g>
		</g>
	</g>
</g>
</svg>
