<?xml version="1.0" encoding="utf-8"?>
<!-- Generator: Adobe Illustrator 26.0.2, SVG Export Plug-In . SVG Version: 6.00 Build 0)  -->
<svg version="1.1" id="レイヤー_1" xmlns="http://www.w3.org/2000/svg" xmlns:xlink="http://www.w3.org/1999/xlink" x="0px"
	 y="0px" viewBox="0 0 314.1 480.6" style="enable-background:new 0 0 314.1 480.6;" xml:space="preserve">
<style type="text/css">
	.st0{clip-path:url(#SVGID_00000057850918181990054020000009696196986635070911_);}
</style>
<g id="レイヤー_2_00000157995379560131427280000016084068866633568932_">
	<g id="レイヤー_1-2">
		<g>
			<defs>
				<rect id="SVGID_1_" x="0.3" y="-6.4" width="310" height="491.5"/>
			</defs>
			<clipPath id="SVGID_00000081633406498602149040000013096820814302514358_">
				<use xlink:href="#SVGID_1_"  style="overflow:visible;"/>
			</clipPath>
			<g style="clip-path:url(#SVGID_00000081633406498602149040000013096820814302514358_);">
				<path id="パス_1244" d="M182.9,479.8c21.7-1,42.1-7.1,61.9-15.8c17-7.3,30.7-20.6,38.6-37.4c21.8-45.4,22.1-90.2-6.1-133.2
					c-7.5-11.2-16.1-21.6-25.6-31.2c-18.5-19.1-38.5-36.6-56.5-56.1s-34.5-40.4-51.3-61c-4.5-5.5-7.9-11.7-4.2-19.7
					c1-2.2-0.8-6.8-2.6-9.1c-16.3-19.3-29.6-40.5-40.8-63.3c-5.9-12-15.9-19.9-29.2-22.3c-12.3-2.2-20.9-8.2-25-20.9
					C39.7,2.1,35.2-0.2,27.7,0S17.2,3,16.9,11.1c-0.1,2.6,0.3,5.3,0.4,7.9c0.2,9-1.4,17.3-8.6,23.4c-0.3,0.2-0.5,0.5-0.8,0.8
					C-12,62.6-18.9,86-12.9,113.4c3.8,17.3,7.5,34.7,11.9,51.8c1.5,6.2,4.3,12,8.2,17.1c4,4.9,6.5,10.9,7,17.3
					c3.4,29.6,6.6,59.3,11,88.8c5.7,38,18.1,74,34.5,108.4c13.4,28,34.9,49.6,58.7,68.6c15.2,12.2,33.6,14.9,52.3,15.2
					C174.9,480.6,178.9,480.1,182.9,479.8 M178.8,473.6c-21.7,0.6-41.1-3.3-58.3-16.6c-18-13.9-33.8-29.6-45.2-49.4
					c-18.5-32.2-32-66.5-38.4-103.3c-6.6-38.3-12.2-76.8-18.4-115.2c-0.9-5.8,0.1-10.4,4.4-14.3c7.4-6.8,14.7-13.7,22.3-20.3
					c1.8-1.6,4.8-3.6,6.6-3.1c8.8,2.4,13.7-1.6,18.3-8.6c4.2-6.4,8-6.5,14-2.1c3,2.2,5.5,5.1,8.5,7.2c6.8,4.9,10.2,4.3,14.6-2.8
					c2.2-3.5,3.6-7.5,5.8-10.9c4.6-6.8,15.4-6.9,18.2,0.1c6.1,14.9,15.9,27.2,25.8,39.4c25.7,31.8,54,61.2,83.2,89.7
					c8.5,8.4,17,16.9,24.4,26.3c30.9,39.4,34.3,82.2,14.2,127.5c-7,16.3-19.5,29.6-35.4,37.5C222.9,465.3,200.6,470.3,178.8,473.6
					 M10.6,175.3c-2.1-4.7-5-8.8-5.8-13.3c-3.8-20.4-7.4-40.8-10.5-61.2c-3-19.2,2.9-35.7,15.7-49.7c2-2.2,4-4.4,6.2-6.4
					c6.8-6.3,9.6-14,8.3-23.4c-0.6-4.4-0.7-8.8-1-13.1c9-1.8,9.4-1.9,11.9,5.7c3.7,11,11.4,17.3,21.7,20.9c2.7,1.1,5.6,2,8.4,2.6
					c8.9,1.7,15.6,6.5,20.6,14.1s9.6,15.2,14.7,22.7c9.4,14,19,27.8,28.4,41.7c1.1,1.8,2,3.6,2.8,5.5c-7.5,1.5-15.4,1.1-20.7,4.7
					c-5.2,3.5-7.7,11.1-11.8,17.6c-3.9-2.8-7.7-5.7-11.6-8.4c-13.7-9.3-18.7-7.9-26.9,7c-0.4,0.6-1,1.1-1.6,1.5
					c-16.8,0.3-16.6,0.4-28.1,14.9C26,165.2,19.8,171,10.6,175.3"/>
			</g>
		</g>
	</g>
</g>
</svg>
