<?xml version="1.0" encoding="utf-8"?>
<!-- Generator: Adobe Illustrator 26.0.2, SVG Export Plug-In . SVG Version: 6.00 Build 0)  -->
<svg version="1.1" id="レイヤー_1" xmlns="http://www.w3.org/2000/svg" xmlns:xlink="http://www.w3.org/1999/xlink" x="0px"
	 y="0px" viewBox="0 0 294.6 622" style="enable-background:new 0 0 294.6 622;" xml:space="preserve">
<style type="text/css">
	.st0{clip-path:url(#SVGID_00000176740646754674783110000012999359638081329830_);}
</style>
<g id="レイヤー_2_00000058555039245690444720000012100115991853914775_">
	<g id="レイヤー_1-2">
		<g>
			<defs>
				<rect id="SVGID_1_" x="-17.8" y="-81" width="313.4" height="786.5"/>
			</defs>
			<clipPath id="SVGID_00000178193809459869485360000015769396774346182037_">
				<use xlink:href="#SVGID_1_"  style="overflow:visible;"/>
			</clipPath>
			<g style="clip-path:url(#SVGID_00000178193809459869485360000015769396774346182037_);">
				<g id="グループ_295">
					<path id="パス_1191" d="M349.8,164.8c7,8,6.9,10.3-1.5,17.8c-9.3,8.4-21.1,13.5-33.6,14.5c-24.9,2.1-48.5,11.9-67.7,28
						c-5.2,4.3-11.2,7.9-18,12.6c3.9,3.1,6.6,6.2,10.1,7.8c7.6,3.4,13.9,9.3,17.6,16.8c5.2,10.1,10.3,20.3,14.9,30.7
						c4.5,10.2,3.6,20.9,1.6,31.5c-4.9,26.2-15.3,51-30.4,72.9c-8.1,12-16.9,23.5-26.2,34.6c-26.4,31.4-52.6,62.9-80,93.4
						c-24.6,27.4-50.6,53.6-76,80.3c-9.3,9.8-21.3,13.9-34,16c-12.8,2-25.8-9.8-26.3-23.2c-0.9-21.1,0.9-41.8,7.1-62.3
						c18.4-60.6,37-121.2,60.6-180c10.2-25.5,22.5-50.3,33.6-75.4c3.2-6.9,5.8-14,7.8-21.2c3.4-12.8,10.9-22,22.2-28.5
						C146,223,161.1,217.8,178,220c2.6,0.4,5.3,0,8.7-0.1c3-15,3.6-29.8,3.7-44.5c0.3-22.7-1.1-45.5-0.2-68.1
						c0.6-15,4-29.9,6.3-44.8c0.8-5.4,2.1-10.8,3-16.2c2.4-14.2,7.3-17.7,21.3-15.2c2.7,0.5,5.3,1.2,8.8,1.9c3.1-4,6.2-8,9.4-12
						c6.8-8.4,8.1-8.7,18.2-4.2c0.9,0.4,2,0.6,3.6,1.1c2.5-2.5,5-5.2,7.7-7.8s5.3-5.5,8.4-7.6c7.1-4.8,12.1-2.8,12.7,5.9
						c0.7,10.6,0.1,21.3-0.2,32c-0.1,3.7-0.6,7.5-1.1,12.5c3.2-1,5.7-1.7,8.1-2.5c3.6-1.2,7-2.9,10.7-3.7c6.9-1.5,9.1-0.2,12.1,6.3
						c1.3,2.8,2.2,5.8,3.7,8.5c4,7,8.5,8.6,15.4,4.6c5.4-3,10-7.3,15.1-10.8c4.1-2.9,8.3-7.9,13.7-4.4s2,9.3,0.9,14.1
						c-0.9,3.6-1.8,7.3-2.7,11.4c5.2,3.2,10.3,5.9,15,9.3c10.1,7.3,11.3,14.1,2.7,23.1c-7.3,7.7-16,14-24.2,20.8
						c-2,1.7-4.5,2.9-8.1,5c3.1,1.8,5.2,3.1,7.4,4.3c6.8,3.5,8.4,7.8,4,13.9C358.7,157.4,354,160.9,349.8,164.8 M5.5,564
						c0.2,11-0.3,21.8,0.9,32.3c1.7,14.3,11.3,20.9,25.6,18.7c8.9-1.4,17.2-5.7,23.5-12.2c15.2-15.5,31.2-30.3,45.4-46.7
						c40.5-46.5,80.3-93.6,120.3-140.6c21-24.4,36-53.3,43.9-84.5c7.2-28.5-3.5-51.9-21.2-73.3c-1.7-2-4.3-3.4-6.6-4.9
						c-16.5-10.1-34.4-17.1-52.4-24.2c-22.4-8.9-59.7,7.2-68.8,30C98.2,303.3,77.6,347,60.6,392C45.3,432.6,33.2,474.4,20,515.6
						C14.8,531.6,10.3,547.9,5.5,564 M193,223.3c7.1,3,14.2,5.6,20.9,9c4.4,2.2,7.7,1.4,11.4-1.2c8.4-6,17.3-11.4,25.6-17.6
						c16.5-12.1,34.7-19.4,55.2-21.3c11.5-1,22.4-4.2,31.9-11c2.9-2.1,5.3-4.9,8.3-7.7l-10.6-8.8c6.6-6.7,18.1-7.4,20.2-18.6
						l-18-9.2c2.6-2.8,3.9-4.8,5.7-6.1c4-2.7,8.3-4.9,12.3-7.5c6.1-3.9,12.4-7.6,17.9-12.2c9.6-8,8.6-16.9-2.3-22.8
						c-3.1-1.5-6.2-2.9-9.5-4.1c-6.7-2.8-7.1-3.9-4.8-11c1.4-4.3,4.3-8.4,3.5-14.4c-2.2,1-3.8,1.5-5.1,2.4c-5,3.6-9.7,7.8-14.9,11.1
						c-9.3,5.9-17,3.6-22.2-5.9c-1.5-2.7-2.8-5.6-4.4-8.2c-3.6-6-6-7.3-11.7-3.7c-6.9,4.3-13.1,9.9-19.2,15.4
						c-3.8,3.4-6.6,8-10.4,11.4c-6.5,5.8-10.7,5.5-17.1-0.4c-3-2.7-6-5.4-8.7-7.9C224.6,87,191.7,178.5,193,223.3 M196.5,156.9
						c5.4-12.7,10-24.4,15.4-35.7c7.8-16.5,15.9-32.8,24.3-49c4.3-8.3,6.5-8.7,14.7-4.4c5.2,2.7,10.1,5.7,15.3,8.6
						c9.5-4.4,14.5-11.7,15.8-21.6c1.3-9.2,2.6-18.4,3.1-27.7c0.4-6.3-0.6-12.7-1.1-19.6c-8.2,3.9-8.8,4.3-14,10.7
						c-8.1,9.9-8.1,9.9-18.8,3.3c-0.5-0.3-1.3-0.1-3.3-0.1l-18.9,22c-2.2-1.4-3.2-1.8-3.9-2.5c-8.2-8.4-16.8-5.5-18.3,6.9
						c-1,8.5-3.3,16.9-5.2,25.3c-5.8,25.7-3.3,52.1-6.2,78.1C195.2,152.7,195.9,154.3,196.5,156.9"/>
					<path id="パス_1192" d="M100.4,442.8l-15.3-10.9c9.7-0.5,14.1,2.9,17,8.7L100.4,442.8"/>
					<path id="パス_1193" d="M66.6,511.9L55,501.7C64.3,501.4,65,501.9,66.6,511.9"/>
					<path id="パス_1194" d="M127.9,315.6c6.2-1.1,12-0.9,15.6,5.6L127.9,315.6"/>
					<path id="パス_1195" d="M117,368.7c7.5,1.1,7.5,1.1,10.6,5.8C122.2,375.5,119.7,371.8,117,368.7"/>
					<path id="パス_1196" d="M75,465.3l3.5,7.6l-2.1,1l-3.9-7.1L75,465.3"/>
				</g>
			</g>
		</g>
	</g>
</g>
</svg>
