<?xml version="1.0" encoding="utf-8"?>
<!-- Generator: Adobe Illustrator 26.0.2, SVG Export Plug-In . SVG Version: 6.00 Build 0)  -->
<svg version="1.1" id="レイヤー_1" xmlns="http://www.w3.org/2000/svg" xmlns:xlink="http://www.w3.org/1999/xlink" x="0px"
	 y="0px" viewBox="0 0 216.9 360.2" style="enable-background:new 0 0 216.9 360.2;" xml:space="preserve">
<style type="text/css">
	.st0{clip-path:url(#SVGID_00000086667861490074461160000017799651113688637329_);}
	.st1{fill:#FFFFFF;}
</style>
<g id="レイヤー_2_00000070808267722370868280000007264631832247538835_">
	<g id="レイヤー_1-2">
		<g>
			<defs>
				<rect id="SVGID_1_" x="0.4" y="-79.4" width="243.8" height="470.1"/>
			</defs>
			<clipPath id="SVGID_00000111175150329771947740000003622118605172719009_">
				<use xlink:href="#SVGID_1_"  style="overflow:visible;"/>
			</clipPath>
			<g style="clip-path:url(#SVGID_00000111175150329771947740000003622118605172719009_);">
				<g id="グループ_303">
					<path id="パス_1217" d="M-6.7,340.9c-3.7,0.2-7.4,0.8-11.1,0.7c-26.2-1-45-22.1-44.1-49.5c0.7-20.2,2.3-40.5,2.6-60.7
						c0.4-26.4,0.3-52.9-0.1-79.3c-0.3-18.6,4.2-36.2,11.5-53c5.8-13.6,12.4-26.8,19.6-39.6C-18.8,42.5-4.2,29,13.5,20.9
						c2.8-1.3,5.4-3,7.6-5.1c19-18.4,44.7-20.9,66.8-6.3c2.6,1.7,5.1,3.5,7.8,5c4.2,2.3,7.6,1.5,10.6-2.6c6.8-9.2,7.1-9.2,17.7-5.2
						c1.6,0.6,3.1,1.4,5.2,2.4c-0.4,4.6-0.8,9.2-1.3,14.8c3.5,0.3,6.4,0.7,9.4,0.7c11.5,0.3,22.4,4.8,30.8,12.7
						c3.9,3.8,6.9,8.5,8.6,13.6c1.3,4.2,4.1,7.8,7.9,10.1c7.2,4.6,14.1,9.8,21.1,14.8c5.7,4.1,8.6,9.5,8.4,16.7
						c-0.1,4.1,0.2,8.3,0.9,12.3c6.2,32.9-3.8,62.6-18.6,91.1c-14.7,28-32.7,54.2-53.7,77.9c-13.2,14.9-24.9,31.1-34.9,48.3
						c-6.9,12-16.8,20.8-28.4,27.8c-7.1,4.3-13,3.6-21.9-3.7c3,0,4.3,0.1,5.7,0c14.3-0.7,24.5-8.5,32.6-19.3
						c8.5-11.2,16.2-23.1,24.3-34.5c5-7,9.9-14,15.4-20.6c21.3-25.3,41.1-51.6,56.2-81.1c12.9-25.2,21.7-51.2,16.4-80.2
						c-0.3-2.7-0.3-5.5,0.2-8.2c1.3-10.1-2.2-18.5-10-24.6c-6.2-4.8-12.9-9.1-19.8-12.9c-6.4-3.5-13.4-2.7-20.1-0.7
						c-7.5,2.2-14.9,4.8-23.4,7.6c2.1-7.2,8.9-7.6,13.5-11.5c-2.9-7.3-6.9-13.1-15-15.2c-2.7-0.7-5.2-1.7-7.7-3
						c-6.2-3.2-7.2-5.3-6.1-12.4c0.6-3.7,1.5-7.5,1.4-11.2c-0.2-5.3-4-7.3-8.5-4.5c-2.4,1.4-4.4,3.4-5.8,5.8
						c-4,7.8-10.2,7.1-16.8,4.8c-8.8-3.2-16.8-1.4-25.1,3.7c3.8,8.2,13.3,13,13.7,24.9c-2.7-2.6-4.4-3.7-5.2-5.2
						C69.6,40,62.9,35.4,55,32.4c-4.8-1.8-9.9-3-14.7-4.8c-12.8-5-24-2-35,5.4C-9.9,43.3-21,56.9-29.1,73.2
						c-5.4,11.1-10.6,22.3-15.6,33.7c-5.9,13.6-8.5,28.5-7.7,43.3c2.1,44.3-0.3,88.6-2,132.8c-0.3,5.1-0.2,10.3,0.2,15.4
						c1.4,14.2,8.1,25.2,20.7,32.6c11.8,6.9,19.3,6.3,30-3.7c0.6,13.6,10,19,20.5,23.5c14.5,6.2,26.6,2.4,31.9-12.4
						c5.4-15.5,9.4-31.6,12.7-47.7c5.2-25.1,14-48.8,24.4-72.1c8.1-18.2,17.1-36.1,23.9-54.7c8.5-23.3,12-47.9,14.4-72.6
						c1.1-11-2.9-17.4-13.5-21.7c-17.5-7.1-35.1-10-52.4,0.8c-2,1.2-4.3,1.7-6.5,1.4c1.3-1.5,2.5-3.3,4.1-4.5
						c18.2-13.3,42.9-13.5,63.8,0.3c9.2,6,13.3,15.1,12.1,25.7c-1.4,12.3-4,24.4-6,36.6c-4.7,27.8-15.6,53.4-27.9,78.4
						c-15,30.4-26.7,61.8-32.5,95.3c-2.1,12.2-5.3,24.2-8.2,36.2c-3.2,13.3-14.6,21.4-28.3,20.3C10.4,358.7,5.4,356.1-6.7,340.9
						 M132.2,30.5c13.4,18.2,25.7,26.2,35,25.1c2.2-8.2,1.4-11.7-4.8-15.6c-4.8-3.2-10-5.9-15.5-7.8C142.3,30.7,137.1,31,132.2,30.5
						 M77.9,13.3c-16.6-8.7-34.5-6.7-45.8,4.2C48.2,30,61.6,18.4,77.9,13.3"/>
					<path id="パス_1218" d="M31.6,95c-2.2,3.1-3.6,4.9-4.9,6.8c-4.6,7.2-10.4,13.8-13.6,21.6c-14.4,34.7-25,70.7-33.1,107.3
						c-3.5,15.6-3.5,32-4.8,48.1c-1.1,13.3-1.9,26.6-3,41.6c-2-2.2-3-2.8-3-3.4c0.7-23-2.6-46,1.9-68.8c3.5-18.2,7.4-36.3,11.6-54.4
						c3-12.7,6.3-25.4,10.3-37.8c5.9-18.3,12.4-36.5,25.1-51.5C21.4,100.6,24.6,96.7,31.6,95"/>
					<path id="パス_1219" class="st1" d="M132.2,30.5c4.9,0.5,10.1,0.2,14.7,1.6c5.5,2,10.7,4.6,15.5,7.8c6.2,3.9,7,7.5,4.8,15.6
						C157.9,56.7,145.6,48.8,132.2,30.5"/>
					<path id="パス_1220" class="st1" d="M77.9,13.3C61.6,18.3,48.2,30,32,17.5C43.4,6.6,61.3,4.6,77.9,13.3"/>
				</g>
			</g>
		</g>
	</g>
</g>
</svg>
