<?xml version="1.0" encoding="utf-8"?>
<!-- Generator: Adobe Illustrator 26.0.2, SVG Export Plug-In . SVG Version: 6.00 Build 0)  -->
<svg version="1.1" id="レイヤー_1" xmlns="http://www.w3.org/2000/svg" xmlns:xlink="http://www.w3.org/1999/xlink" x="0px"
	 y="0px" viewBox="0 0 337.3 328.1" style="enable-background:new 0 0 337.3 328.1;" xml:space="preserve">
<style type="text/css">
	.st0{clip-path:url(#SVGID_00000168079135194126880710000015162881890998998701_);}
</style>
<g id="レイヤー_2_00000056411313091911777930000003762099044418853014_">
	<g id="レイヤー_1-2">
		<g>
			<defs>
				<rect id="SVGID_1_" x="-18.6" y="-19.3" width="357" height="386"/>
			</defs>
			<clipPath id="SVGID_00000074434612615874251380000011535038899824636554_">
				<use xlink:href="#SVGID_1_"  style="overflow:visible;"/>
			</clipPath>
			<g style="clip-path:url(#SVGID_00000074434612615874251380000011535038899824636554_);">
				<g id="グループ_201">
					<path id="パス_503" d="M289,0c21.6,3.6,43.8,5.4,64.8,11.3c50,14.1,78.1,49.5,90.4,98.8c4.9,19.4,2.2,38.7-0.9,57.8
						c-2.2,13.9-10.8,24.4-21.8,32.6s-22.7,15.7-34.1,23.5c-23.1,15.8-46.1,31.9-69.5,47.4c-13.6,9-27.9,17.2-42,25.6
						c-6.3,3.8-13.1,6.8-19.1,10.9c-30.8,21.4-64.9,22.7-100.3,17.6c-14.5-2.1-29.2-2.9-43.6-5.5c-10.5-1.9-21.2-4.6-30.9-8.9
						c-15.7-7.1-31-15.1-45.8-23.9c-13.4-7.8-22.7-19.4-28.5-34.1C-9.3,209.5,1,138.9,45.4,107.4c46.4-33,93.2-65.7,148.1-83.9
						c23.3-7.7,45.9-17.7,70.7-20.1c8.1-0.8,16.3-1.4,24.5-2.1L289,0 M277.6,287.7c3.1-1.4,5.5-2.1,7.6-3.4
						c8.8-5.5,17.6-10.9,26.1-16.7c31-21,62-42.3,93-63.2c20.8-14.1,31.9-33.6,32.7-58.5c0.7-23.2-3.4-45.7-13.2-66.7
						c-14.9-32-38.4-55.1-73.7-63.7C315.8,7.2,280.7,5,246.3,13.8C197.8,26.3,150.9,43.5,110.2,74c-1.2,0.9-2.1,2.3-4.3,4.8
						c4.2-0.5,6.7-0.8,9.2-1c18.5-1.3,37-2.8,55.3,1.6c34,8.1,63,25.3,88.4,48.9c7.8,7,13.2,16.2,15.7,26.3
						c6.7,28.3,10.1,56.9,7.8,85.9C281,255.9,279.2,271.2,277.6,287.7 M272.6,226.3c3.3-20.5-0.7-41.9-6.3-63.4
						c-3.5-13.9-11.2-26.3-22.1-35.7c-14.7-12.9-31.5-22.5-49.3-30.5c-55.5-25.1-106-15.1-151.7,23.1c-20.8,17.4-32,40.3-32.4,67.9
						c-0.1,4.7-0.8,9.4-1.2,14.1c-3.2,33.2,5,61.1,34.6,80.8c27.2,18.1,56.6,28.7,88.7,33.4c27.4,4,54.8,7,82.4,2.2
						c33.4-5.8,54.2-29.6,56-63.1C271.8,246.1,272.2,237.1,272.6,226.3"/>
					<path id="パス_504" d="M299.4,120.8c1.9,1.8,4.6,3.6,4.4,4.4c-0.6,2-2.6,3.6-4,5.3c-1.5-1.6-3.6-3-4.4-5
						C295.1,124.7,297.6,122.8,299.4,120.8"/>
					<path id="パス_505" d="M350,69.8c-2.6,0.5-4.3,1.4-5.4,0.9s-1.8-2.3-2.7-3.5c1.7-0.8,3.4-2,5-2
						C347.7,65.2,348.5,67.6,350,69.8"/>
					<path id="パス_506" d="M248.1,69.9c-0.6-1.6-1.7-3.2-1.5-4.7c0.4-1.5,1.4-2.7,2.9-3.3c0.8-0.2,2.9,1.4,3.1,2.4
						c0.2,1.1-1,2.6-1.7,3.9L248.1,69.9"/>
					<path id="パス_507" d="M406.6,153.8c-1.8,1.6-2.8,3.1-3.4,2.9c-1.4-0.3-2.6-1.5-3.9-2.3c0.8-0.8,1.5-2.3,2.3-2.4
						C402.9,152.1,404.2,152.9,406.6,153.8"/>
					<path id="パス_508" d="M339.1,171.4c-1.6-1.2-3.3-2.2-3.1-2.5c0.5-1.4,1.3-2.6,2.4-3.5c0.3-0.3,2.7,1.1,2.6,1.6
						C340.9,168.3,340,169.6,339.1,171.4"/>
					<path id="パス_509" d="M224.1,244.7c-8.7-2-21.9-4.1-34.5-8.2s-13.6-15.4-3-23.6c3.4-2.7,7.2-4.6,11.4-5.8
						c9.5-2.6,19.2-4.5,29-5.8c13.1-1.6,22.8,8,23.1,21.6C250.5,236.3,242.3,244.6,224.1,244.7 M188.8,223.7
						c10.7,8,24.8,11.4,37.7,10.3c8.5-0.7,11.4-4,11-12.5s-3.3-11.8-12.4-10.8c-8.9,1-17.7,3.3-26.4,5.9
						C195.5,217.6,192.9,220.7,188.8,223.7"/>
					<path id="パス_510" d="M147,281.2c1.2-7.5,2.5-18.2,4.6-28.8c1.3-6.9,5-9.6,11.9-9.2c13,0.8,21.2,8.1,26.6,19.5
						c5.1,10.7,3.2,20.1-4.4,28.6c-2.8,3.2-6,6.2-9.4,8.8c-6.4,4.8-13.4,5.5-20.6,1.5C148.9,297.9,146.3,291.9,147,281.2 M163.6,252
						c-6.7,9.2-9.6,29.7-6.2,37.9c2.3,5.5,6.6,6.5,11.6,4.7c7.3-2.7,12.4-7.9,13.8-15.6c1.5-8.1-0.6-15.4-7.6-20.5
						C171.8,256.1,167.9,254.4,163.6,252"/>
					<path id="パス_511" d="M126.1,146c0.8-13.1,3-23.7,9.8-32.5c3.1-4.1,7.2-7.4,11.8-9.5c8.9-3.8,17.6,1.5,19.4,10.9
						c3.4,17.6-9.9,41.1-26.7,47.5c-5.5,2.1-9.5,0.4-11.5-4.7C127.3,153.3,126.7,148.6,126.1,146 M139.9,149.3
						c10.6-5.3,19.2-16.1,19.9-26.2c0.2-2.9-1.1-7.4-3.2-8.7s-6.7-0.6-9.2,1C137.5,121.5,134.1,138.2,139.9,149.3"/>
					<path id="パス_512" d="M88.6,197.7c2.2,8-0.7,12.8-5.1,16.5c-7.6,6.3-15.1,12.8-23.3,18.2c-12.6,8.3-22.2,7-27.8-2.7
						s-1.2-26.4,9.4-31.3C57,191.2,72.9,189.6,88.6,197.7 M78.1,203c-11.1-4.6-11.6-4.6-21.7-2.3c-16.2,3.7-19.2,12.5-8.4,27.6
						C60.9,224,71.6,217.2,78.1,203"/>
					<path id="パス_513" d="M97.6,282.1c-4.9-1.4-10.2-2-14.5-4.5c-7.1-4.1-8.7-15.7-3.3-23c7.6-10.2,17.3-18.1,29.3-22.6
						c11.2-4.1,16.8,0.3,15.9,11.9c-0.5,5.6-1.3,11.1-2.3,16.7C120,275.6,113.3,281.1,97.6,282.1 M114.7,237.3
						c-12.4,4.4-20.7,12.4-26.9,22.7c-2.7,4.5,0,8.2,4.2,10.5c7.3,3.9,16.4,1.2,20.3-6.2c0,0,0,0,0-0.1c0.3-0.6,0.6-1.2,0.8-1.8
						C116.2,254.5,116.8,245.6,114.7,237.3"/>
					<path id="パス_514" d="M105.9,161.4c-1.1,10.8-4.7,15-14.9,14.2c-8.9-0.8-17.8-2.8-26.5-4.8c-6.8-1.6-10.1-6.4-9.1-13.4
						c0.9-5.5,2.1-10.9,3.7-16.2c2.4-8.4,7-14.9,16.8-14.9c10.2-0.1,18.9,3.6,23.2,13.2C102.3,146.4,103.7,154.1,105.9,161.4
						 M96.7,167.3c-1.8-9.1-2.5-16.3-4.7-23.1c-2.2-6.8-9.2-9.7-16.9-8.3c-6.4,1.2-11.1,8.1-11.4,16.7c-0.3,7.2,4.4,10,10.2,11.2
						C80.5,165.3,87.3,165.9,96.7,167.3"/>
					<path id="パス_515" d="M228.9,146.6c-1,8.7-4.9,17.1-14.7,21.1c-7.8,3.2-17.2,9.3-24.1,3c-7.2-6.6-0.7-16.1,2.3-23.8
						c2.1-4.7,4.9-9.1,8.3-12.8c4.9-5.6,14.3-7.6,20-5.1C225.5,131,229,138,228.9,146.6 M195.1,164.4c7.1-2.9,12.6-4.2,16.9-7.1
						c5.6-3.9,7-11.7,3.1-17.3c-0.2-0.3-0.5-0.6-0.7-1c-2.7-3.2-6.2-4-8.8-0.6C200.3,144.9,194.9,151.6,195.1,164.4"/>
					<path id="パス_516" d="M156,195.5c0.1,10.2-6,18.3-14.1,18.4s-14.3-5.8-14.1-13.5c0.2-9,8.9-18.1,17.1-18
						C151.7,182.4,155.9,187.4,156,195.5 M147.1,191.2l-3.2-1.5c-2.4,2.5-5.4,4.6-7,7.5c-0.7,1.4,0.9,5.4,2.4,6.1s5.8-0.4,6.4-1.8
						C147,198.4,146.8,194.7,147.1,191.2"/>
				</g>
			</g>
		</g>
	</g>
</g>
</svg>
