<?xml version="1.0" encoding="utf-8"?>
<!-- Generator: Adobe Illustrator 26.0.2, SVG Export Plug-In . SVG Version: 6.00 Build 0)  -->
<svg version="1.1" id="レイヤー_1" xmlns="http://www.w3.org/2000/svg" xmlns:xlink="http://www.w3.org/1999/xlink" x="0px"
	 y="0px" viewBox="0 0 248.9 307.4" style="enable-background:new 0 0 248.9 307.4;" xml:space="preserve">
<style type="text/css">
	.st0{clip-path:url(#SVGID_00000035491227104527690630000001517833037489977772_);}
	.st1{fill:#1A1311;}
</style>
<g id="レイヤー_2_00000000940966471248984690000016887257704393783734_">
	<g id="レイヤー_1-2">
		<g>
			<defs>
				<rect id="SVGID_1_" x="0.6" y="1.1" width="267.6" height="315.5"/>
			</defs>
			<clipPath id="SVGID_00000174573528245137452290000005857695383721840035_">
				<use xlink:href="#SVGID_1_"  style="overflow:visible;"/>
			</clipPath>
			<g style="clip-path:url(#SVGID_00000174573528245137452290000005857695383721840035_);">
				<g id="グループ_195">
					<path id="パス_484" class="st1" d="M30.5,17.1l5.2-6.4l9.5,4.1c1.6-3.4,3-6.4,4.5-9.4c3.4-6.6,7-7,11.6-1.5
						c1.3,1.7,2.6,3.4,3.7,5.3C75.6,25.8,90.6,37.2,109,44.4c19.8,7.8,39.6,15.7,59.3,23.8c27.4,11.4,48.7,31,63.7,55.5
						c21.7,35.4,22.4,73.1,2.6,110.2c-4,7-9.1,13.4-15.1,18.9c-23,21.6-50.4,35.9-80.1,45.6c-25.7,8.5-53,11.1-79.9,7.6
						c-12.9-1.6-25.4-5.4-37-11.2c-22.4-11.4-36.7-29.6-44.8-52.9c-11.2-31.9-10-63.6,2.4-94.9c10.1-25.6,20.5-51.1,31.5-76.3
						c6-13.7,7.8-27.3,4.5-41.8c-0.3-1.3-0.6-2.6-0.8-4c-0.9-6,0.6-7.9,6.5-8.5c1.3-0.1,2.7-0.1,4,0C27.2,16.4,28.5,16.8,30.5,17.1
						 M21.6,22.1c-0.3,0.5-0.5,1.1-0.6,1.6c0,1.6,0.2,3.2,0.5,4.8c3.3,15.6,1.1,30.4-5.5,44.9C9.8,87,4.3,100.8-1.4,114.5
						C-6.5,127-12.1,139.3-16.6,152c-9.5,26.6-12,53.7-3,80.9c10.8,32.5,31.3,55.6,65.2,65.1c6.2,1.8,12.6,3.1,19,3.8
						c56.3,5.2,105.1-12.8,148-48.5c8.1-6.9,14.3-15.7,18-25.6c1.9-4.8,3.6-9.6,5.5-14.4c10.1-24.6,8-49.2-1.1-73.4
						c-11.7-30.8-36.1-50.3-63.6-65.2c-20.2-11-42.6-18.3-64.1-26.9c-18.4-7.4-34.5-17.6-45.7-34.6c-1.5-2.2-3.9-3.9-6.2-6.1
						c-1.9,3.9-3.2,6.9-4.8,9.6c-2.3,3.8-5.3,5.9-10.1,4.2c-1.6-0.5-4.3-0.8-5.2,0.2C31.1,25.7,26.6,24.2,21.6,22.1"/>
					<path id="パス_485" class="st1" d="M64.5,30.9c2.7,3.2,5.6,6.4,8.2,9.7c10.8,13.9,24.7,25.1,40.5,32.9
						c14.9,7.5,29.8,15.2,44.7,22.8c25.8,13.2,42.9,33.9,52.2,61.2c6.9,20.1,6.6,39.7-3.6,58.8c-2,3.8-3.6,7.8-5.7,11.6
						c-1.8,3.7-4.4,7-7.5,9.8c0.1-1.6,0.4-3.3,0.8-4.9c1.8-5.4,3-11.1,5.7-16c16.3-29.9,8.9-57.4-8.3-83.8
						c-9.6-14.8-23.4-25-39-33.1c-19.2-9.9-38-20.5-56.8-31c-13.1-7.2-21.5-19.5-30.9-30.5c-1.4-1.6-1.6-4.2-2.4-6.4L64.5,30.9"/>
					<path id="パス_486" class="st1" d="M72.3,268.5c-4.7,2.2-7.3-0.4-9.9-2.7c-10.6-9.6-18.4-20.6-21.6-35.1
						c-4.7-21.9-10.1-43.8-9.2-66.3c0.6-15.6,2.9-31.1,4.4-46.7c1.6-17.2,3.1-34.4,4.7-51.5c0.2-1.8,0.7-3.5,1.1-6
						c5,4.9,4.7,10.3,4,15.6c-1.8,14.4-3.3,28.9-5.7,43.3c-5.5,34-4.1,67.7,2.7,101.3c3.8,18.7,11.7,34.7,27.6,45.9
						C71.1,267,71.7,267.7,72.3,268.5"/>
					<path id="パス_487" class="st1" d="M165.1,261.1c-0.1-3-0.6-4.8-0.2-6.4c5.2-20,0.9-39-6.4-57.7c-7.7-20.2-19.3-38.7-34-54.6
						c-8.7-9.4-12.4-16.2-14.8-26.1c0.3,0,0.7-0.1,0.8,0c17.5,21.8,36.7,42.4,48.3,68.4c6.9,15.6,12,31.8,14,48.8
						C173.9,243.2,172.5,252.2,165.1,261.1"/>
					<path id="パス_488" class="st1" d="M73.3,188.1c1.2,6.8,1.9,12.6,3.3,18.4c2.1,8.8,5.8,16.8,12.1,23.4
						c6.9,7.2,13.9,14.3,20.9,21.4l6.7,6.8C90,249.8,66.1,210.9,73.3,188.1"/>
				</g>
			</g>
		</g>
	</g>
</g>
</svg>
