<?xml version="1.0" encoding="utf-8"?>
<!-- Generator: Adobe Illustrator 26.0.2, SVG Export Plug-In . SVG Version: 6.00 Build 0)  -->
<svg version="1.1" id="レイヤー_1" xmlns="http://www.w3.org/2000/svg" xmlns:xlink="http://www.w3.org/1999/xlink" x="0px"
	 y="0px" viewBox="0 0 250.5 481.8" style="enable-background:new 0 0 250.5 481.8;" xml:space="preserve">
<style type="text/css">
	.st0{clip-path:url(#SVGID_00000132801044384411723910000003905165146228380048_);}
	.st1{fill:#1A1311;}
</style>
<g id="レイヤー_2_00000005261148945622190970000018133364958288149400_">
	<g id="レイヤー_1-2">
		<g>
			<defs>
				<rect id="SVGID_1_" x="0.3" y="-13.5" width="264.1" height="507.9"/>
			</defs>
			<clipPath id="SVGID_00000003789102367474896180000010743096634354143913_">
				<use xlink:href="#SVGID_1_"  style="overflow:visible;"/>
			</clipPath>
			<g style="clip-path:url(#SVGID_00000003789102367474896180000010743096634354143913_);">
				<g id="グループ_203">
					<path id="パス_517" class="st1" d="M242.8,343.6c2.2,8.2,4.3,16.5,6.7,24.7c3,10.2-0.1,18.4-7.7,25.2
						c-4.2,3.8-8.7,7.2-13.3,10.6c-26.2,19.2-53.3,36.9-82.1,52c-15,7.9-30,16.1-45.5,22.8c-13,5.6-16.1,3.4-23.4-8.9
						c-4-6.5-8.6-12.6-13.7-18.3c-10.5-12.2-17.9-26-23.8-40.8c-9.7-24.5-19.6-48.9-28.9-73.6c-2.4-6.3-3.2-13.4-3.7-20.2
						c-1.6-19.1-4.8-38-11.9-55.8c-10-25.1-12.9-51-10.8-77.6c3.1-38,6.2-75.9,9.6-113.8c0.3-2.4,0.9-4.8,1.6-7.1
						c2.7-9.3,5.2-18.7,8.5-27.9c3-8.8,6.1-17.7,10.4-25.8c6.1-11.6,10.9-11.9,20.1-2c6,6.5,11.8,13.4,17.3,20.4s10.6,14.4,16,21.4
						c4,5.1,7.6,10.8,12.5,14.9c25.1,21.2,40.6,49.4,56.9,76.8c9.5,16,16.7,33.3,25.4,49.8c5.4,10.3,10.7,21,17.8,30.2
						c22.3,28.9,39.6,60.4,53.3,93.9c3.8,9.3,5.4,19.5,8.1,29.3L242.8,343.6 M174.1,232.3c-1,0.6-2,0.9-2.3,1.5
						c-1.8,3.1-3.6,6.3-5.2,9.6c-15.6,32.6-32.9,64.4-54.2,93.5c-21.6,29.4-29,63.9-38.8,97.7c-0.8,2.7-0.2,7.3,1.5,8.6
						c1.7,1.3,6.2,0.5,8.8-0.8c24.6-11.4,49.3-22.7,73.5-34.9c24.5-12.3,45.4-29.5,63.6-50c8.9-10.1,11.5-20.8,5.5-33.5
						c-4.6-9.9-8.1-20.3-12-30.5C205.7,269.9,191.8,249.9,174.1,232.3 M9.3,282.7l119.9,19.6c11.7-25.5,23-50.5,34.5-75.5
						c4.5-9.8,2-17.9-4.9-25.6c-16.8-18.8-37.4-33.8-60.5-43.9c-5.2-2.3-10.6-3.9-16.2-5c-9.8-1.9-14.6,0.5-18,9.9
						c-10.3,28.3-25.1,54.4-40.1,80.4C17.3,254.4,11.8,267,9.3,282.7 M4,80.5c-0.8,2.9-1.8,5-2,7.2c-3.3,35.4-6.4,70.9-9.7,106.3
						c-2,20.7,2.6,40.2,9.7,59.4c0.7,2,2.3,3.6,4,6c5.4-9.9,9.4-19.2,15.1-27.4c13.6-19.9,23.1-41.8,32.4-63.8
						c2.5-6.1,3-13.2,3.3-20c0.4-10-0.3-20.1-0.3-30.1c0-5.1,0.4-10.3,0.7-15.6L4,80.5 M120.1,310c-36-5.2-68.3-20.9-104-16.1
						c-3.9,10.3-2.8,19.6-0.1,28.5c3.4,11.2,7.4,22.3,11.8,33.3c8.3,20.7,16.8,41.3,25.5,61.8c2.3,5.5,4.3,11.4,11.4,15.2
						c2.2-3.9,4.9-7.4,6.2-11.4c2.2-6.6,4-13.2,5.4-20c6.5-30.2,17.7-58.2,37.6-82.2C115.8,317,117.2,314.5,120.1,310 M231.5,357.6
						c-3,2.7-4.9,4.2-6.4,6c-16.4,19-36.1,33.8-58,45.5c-25.3,13.7-51.1,26.3-76.7,39.4c-3.5,1.8-6.8,3.8-10.4,5.7
						c0.8,3.1,1.2,5,1.9,6.9c4.2,10.9,9.6,13.5,20.8,10.1c1.9-0.6,3.8-1.3,5.7-2.1c43.9-20.5,82.9-48.8,122.5-76.2
						c7.7-5.3,9.4-12.9,6.7-21.5C236.3,367.2,234.1,363.4,231.5,357.6 M67.1,143.2c15.2,0.2,30.7,2.4,43.9,12.2
						c12.9,9.5,26.2,18.6,41.4,29.4c-1.7-4.5-2.2-6.8-3.3-8.6c-14.6-24.7-28.7-49.7-44.1-74c-6.4-10.1-15.4-18.6-23.5-27.6
						c-1.9-2.2-5-3.3-9.2-6C70.6,94.1,59.6,116.9,67.1,143.2 M23.5,12.8C16.9,33.4,5,50.2,3.5,71.3c17.1,7.6,33.3,15,49.6,22
						c6,2.6,9.2,0.7,9.7-6.4c1-13.8,4.7-28.3-7.7-39.6c-1.7-1.6-2.5-4.1-4-6.1C43.9,31.1,36.2,21.4,23.5,12.8"/>
				</g>
			</g>
		</g>
	</g>
</g>
</svg>
